<svg xmlns="http://www.w3.org/2000/svg" viewBox="215 165 600 643">
<g>
<path d="M 450.15 635.25 C448.62,636.78 343.56,637.71 342.63,636.20 C342.31,635.70 342.08,582.35 342.12,517.64 L 342.17 400.00 L 384.84 400.03 C408.30,400.05 432.00,400.47 437.50,400.97 C469.53,403.87 492.01,413.73 511.50,433.44 C518.76,440.78 519.46,441.62 524.56,449.04 C528.55,454.85 535.00,468.33 535.00,470.86 C535.00,471.94 535.42,472.98 535.94,473.17 C536.46,473.35 538.00,477.80 539.36,483.05 C549.01,520.28 542.91,562.11 523.71,590.42 C518.84,597.60 505.26,612.00 503.37,612.00 C502.62,612.00 502.00,612.46 502.00,613.03 C502.00,613.60 501.25,614.35 500.33,614.71 C499.41,615.06 497.83,616.17 496.83,617.17 C495.82,618.18 494.33,619.00 493.50,619.00 C492.67,619.00 492.00,619.44 492.00,619.98 C492.00,621.15 482.75,626.00 480.53,626.00 C479.69,626.00 479.00,626.37 479.00,626.82 C479.00,627.95 467.09,632.02 463.81,632.01 C462.33,632.00 460.84,632.45 460.50,633.00 C460.16,633.55 457.97,634.00 455.64,634.00 C453.31,634.00 450.84,634.56 450.15,635.25 ZM 382.24 519.36 L 381.99 603.22 L 410.24 602.75 C435.35,602.32 439.39,602.02 446.50,600.07 C457.99,596.91 472.51,589.01 479.84,581.94 C482.86,579.03 488.00,573.00 488.00,572.38 C488.00,571.59 493.50,563.50 494.26,563.16 C494.67,562.98 494.76,562.42 494.45,561.91 C494.14,561.41 494.36,561.00 494.94,561.00 C495.52,561.00 495.91,560.66 495.80,560.25 C495.58,559.45 497.86,552.18 498.86,550.50 C499.18,549.95 499.60,548.39 499.79,547.02 C499.98,545.66 500.55,544.05 501.06,543.43 C501.57,542.82 501.71,542.04 501.37,541.70 C501.03,541.36 501.09,540.28 501.50,539.29 C502.53,536.79 502.78,533.34 502.92,519.00 C503.04,507.01 502.37,500.61 500.12,492.46 C499.54,490.38 499.31,488.31 499.60,487.84 C499.88,487.38 499.68,487.00 499.14,487.00 C498.21,487.00 496.40,481.36 496.81,479.75 C496.91,479.34 496.52,479.00 495.94,479.00 C495.36,479.00 495.16,478.55 495.50,478.00 C495.84,477.45 495.67,477.00 495.13,477.00 C494.13,477.00 492.43,473.16 492.80,471.75 C492.91,471.34 492.55,471.00 492.00,471.00 C491.45,471.00 491.00,470.55 491.00,469.99 C491.00,468.61 486.83,463.74 478.96,455.95 C474.63,451.66 469.62,447.99 464.42,445.30 C448.31,436.96 434.76,434.73 403.00,435.20 L 382.50 435.50 Z" fill="#0b1e40"/>
<path d="M 603.25 587.28 L 602.91 637.06 L 585.46 636.95 L 568.00 636.84 L 568.13 571.17 C568.20,535.05 568.54,498.75 568.88,490.50 L 569.50 475.50 L 602.50 475.50 L 603.50 500.50 L 605.28 497.25 C606.25,495.46 607.49,494.00 608.03,494.00 C608.56,494.00 609.00,493.39 609.00,492.64 C609.00,490.73 617.56,482.93 623.39,479.51 C630.79,475.17 640.08,472.97 650.50,473.07 C651.76,473.08 652.90,473.08 653.93,473.07 C658.46,473.06 660.98,473.06 662.36,474.31 C664.09,475.86 664.07,479.35 664.02,487.20 C664.01,488.64 664.00,490.23 664.00,491.97 L 664.00 509.73 L 657.75 508.26 C645.37,505.35 628.45,508.57 618.00,515.83 C612.41,519.72 607.17,526.91 604.78,533.99 C603.94,536.46 603.49,552.29 603.25,587.28 Z" fill="#0b1e40"/>
<path d="M 672.51 802.06 C668.06,802.94 625.60,803.28 507.51,803.37 C420.05,803.44 337.70,803.24 324.50,802.92 C302.27,802.38 299.85,802.13 291.71,799.66 C263.55,791.09 241.46,772.22 228.48,745.63 C225.49,739.51 222.02,730.45 220.77,725.50 L 218.50 716.50 L 218.50 315.50 L 220.75 305.13 C230.35,260.79 265.53,227.04 308.36,221.08 C313.64,220.35 361.25,220.00 456.42,220.00 L 596.69 220.00 L 601.09 222.33 C607.16,225.52 609.96,230.66 609.98,238.60 C610.00,245.59 607.75,249.91 602.08,253.73 L 598.70 256.00 L 458.94 256.00 C452.42,256.00 446.19,256.00 440.22,256.00 C322.85,255.99 310.89,255.99 300.86,260.38 C299.22,261.11 297.62,261.95 295.62,262.92 C277.14,271.96 264.94,286.35 257.85,307.50 L 255.50 314.50 L 255.24 511.78 C255.22,525.28 255.20,537.90 255.18,549.68 C254.95,704.90 254.94,715.96 259.21,724.98 C259.87,726.36 260.62,727.69 261.48,729.47 C268.03,742.95 278.45,753.30 292.64,760.40 C294.44,761.30 295.79,762.07 297.20,762.75 C306.10,766.99 317.03,766.99 455.32,766.99 C465.27,766.98 475.88,766.98 487.20,766.99 C611.68,767.00 663.42,766.68 667.20,765.89 C685.09,762.13 703.02,748.16 711.90,731.07 C712.99,728.97 713.91,727.44 714.69,725.84 C719.03,717.00 719.03,706.02 719.00,583.65 C719.00,573.62 719.00,562.84 719.00,551.25 C719.00,431.96 719.30,390.43 720.17,387.90 C721.89,382.88 724.07,380.15 728.05,378.05 C738.73,372.38 750.59,376.08 754.46,386.28 C755.91,390.10 756.03,406.02 755.75,555.00 C755.44,717.92 755.41,719.57 753.37,726.50 C752.23,730.35 750.03,736.65 748.49,740.50 C735.89,771.84 707.03,795.23 672.51,802.06 ZM 750.39 312.91 C748.07,314.73 746.37,315.00 737.12,315.00 C725.80,314.99 721.45,313.58 719.06,309.12 C718.40,307.88 718.00,298.45 718.00,284.07 L 718.00 261.00 L 695.45 261.00 C671.02,261.00 669.25,260.67 665.09,255.39 C663.28,253.08 663.00,251.36 663.00,242.43 L 663.00 242.10 C663.00,234.41 663.00,229.93 665.20,227.27 C668.31,223.51 675.82,223.38 693.95,223.00 L 717.50 222.50 L 718.50 174.81 L 721.40 172.50 C724.94,169.68 728.08,169.00 737.66,169.00 C746.63,169.00 751.27,170.76 753.97,175.19 C755.84,178.25 755.99,180.20 756.00,200.75 L 756.00 223.00 L 778.55 223.00 C809.42,223.00 810.00,223.34 810.00,241.27 C810.00,260.51 809.21,261.00 778.03,261.00 L 756.00 261.00 L 756.00 283.05 C756.00,306.94 755.66,308.77 750.39,312.91 Z" fill="#1d63f7"/>
</g>
</svg>